<?xml version="1.0" encoding="UTF-8" standalone="no"?>
<!DOCTYPE svg PUBLIC "-//W3C//DTD SVG 1.1//EN" "http://www.w3.org/Graphics/SVG/1.1/DTD/svg11.dtd">
<svg width="100%" height="100%" viewBox="0 0 267 295" version="1.1" xmlns="http://www.w3.org/2000/svg" xmlns:xlink="http://www.w3.org/1999/xlink" xml:space="preserve" xmlns:serif="http://www.serif.com/" style="fill-rule:evenodd;clip-rule:evenodd;stroke-linejoin:round;stroke-miterlimit:1.41421;">
    <g transform="matrix(1,0,0,1,-381.566,-259.145)">
        <g transform="matrix(4.16667,0,0,4.16667,0,0)">
            <g transform="matrix(1,0,0,1,104.153,112.119)">
                <path d="M0,-20.764C0.184,-20.764 0.333,-20.615 0.333,-20.431L0.333,-0.333C0.333,-0.149 0.184,0 0,0L-6.016,0C-6.2,0 -6.349,-0.149 -6.349,-0.333L-6.349,-20.431C-6.349,-20.615 -6.2,-20.764 -6.016,-20.764L0,-20.764" style="fill:rgb(17,162,221);fill-rule:nonzero;"/>
            </g>
        </g>
        <g transform="matrix(4.16667,0,0,4.16667,0,0)">
            <g transform="matrix(1,0,0,1,125.89,112.119)">
                <path d="M0,-20.764C0.184,-20.764 0.333,-20.615 0.333,-20.431L0.333,-15.483C0.333,-15.299 0.184,-15.15 0,-15.15L-5.252,-15.15C-5.436,-15.15 -5.585,-15.001 -5.585,-14.818L-5.585,-0.333C-5.585,-0.149 -5.734,0 -5.917,0L-11.934,0C-12.118,0 -12.267,-0.149 -12.267,-0.333L-12.267,-14.818C-12.267,-15.001 -12.415,-15.15 -12.599,-15.15L-17.729,-15.15C-17.913,-15.15 -18.062,-15.299 -18.062,-15.483L-18.062,-20.431C-18.062,-20.615 -17.913,-20.764 -17.729,-20.764L0,-20.764" style="fill:rgb(17,162,221);fill-rule:nonzero;"/>
            </g>
        </g>
        <g transform="matrix(4.16667,0,0,4.16667,0,0)">
            <g transform="matrix(1,0,0,1,149.304,112.302)">
                <path d="M0,-20.947C0.184,-20.947 0.333,-20.798 0.333,-20.614L0.333,-10.372C0.333,-3.587 -3.222,0 -9.948,0C-16.445,0 -19.74,-3.541 -19.74,-10.525L-19.74,-20.614C-19.74,-20.798 -19.591,-20.947 -19.407,-20.947L-13.391,-20.947C-13.208,-20.947 -13.059,-20.798 -13.059,-20.614L-13.059,-10.556C-13.059,-8.344 -12.477,-5.707 -9.704,-5.707C-7.446,-5.707 -6.349,-7.293 -6.349,-10.556L-6.349,-20.614C-6.349,-20.798 -6.2,-20.947 -6.016,-20.947L0,-20.947" style="fill:rgb(17,162,221);fill-rule:nonzero;"/>
            </g>
        </g>
        <g transform="matrix(4.16667,0,0,4.16667,0,0)">
            <g transform="matrix(1,0,0,1,134.859,74.5868)">
                <path d="M0,45.839C0.995,45.818 1.975,45.754 2.934,45.64C7.852,45.057 11.809,43.297 14.453,40.577C12.329,44.36 9.384,47.627 5.856,50.139C3.712,48.765 1.717,47.329 0,45.839M-7.428,53.308C-6.075,52.05 -4.782,50.396 -3.586,48.371C-3.563,48.331 -3.54,48.29 -3.516,48.249C-1.214,49.507 1.115,50.64 3.458,51.679C3.296,51.773 3.131,51.861 2.967,51.951C0.059,53.076 -3.519,53.537 -7.428,53.308M-8.244,54.012C-7.332,54.085 -6.427,54.126 -5.539,54.126C-4.877,54.126 -4.224,54.106 -3.579,54.065C-2.704,54.009 -1.86,53.915 -1.049,53.786C-4.126,54.922 -7.445,55.561 -10.91,55.608C-10.007,55.241 -9.115,54.708 -8.244,54.012M-4.813,-0.933C-6.461,-0.804 -7.862,-0.246 -8.733,0.729C-13.21,-0.401 -17.79,-0.571 -22.146,0.278C-23.685,0.578 -25.156,0.997 -26.549,1.528L-26.548,1.529C-26.591,1.546 -26.634,1.564 -26.677,1.58C-26.711,1.535 -26.745,1.49 -26.779,1.444C-22.284,-1.307 -16.99,-2.897 -11.321,-2.897C-10.443,-2.897 -9.574,-2.858 -8.716,-2.784C-7.355,-2.622 -6.038,-1.989 -4.813,-0.933M1.868,0.573C-0.004,-0.402 -1.978,-0.905 -3.754,-0.957C-4.291,-1.488 -4.849,-1.94 -5.425,-2.311C-0.639,-1.347 3.725,0.766 7.363,3.726C6.774,3.539 6.145,3.404 5.476,3.324C4.547,2.279 3.315,1.327 1.868,0.573M0.212,4.382C2.013,4.006 3.668,3.888 5.13,4.029C5.792,4.823 6.263,5.662 6.481,6.485C6.713,7.355 6.653,8.169 6.31,8.858C4.5,7.192 2.46,5.684 0.212,4.382M0.619,6.364C0.465,5.953 0.306,5.555 0.142,5.167C2.266,6.424 4.192,7.873 5.908,9.463C5.091,10.429 3.672,10.939 1.99,10.981C1.615,9.36 1.16,7.813 0.619,6.364M-2.893,5.243C-2.205,5.008 -1.533,4.807 -0.876,4.638C-0.586,5.262 -0.311,5.922 -0.052,6.615C0.459,7.984 0.893,9.443 1.252,10.971C-0.361,10.886 -2.156,10.404 -3.871,9.511C-5.171,8.834 -6.301,7.971 -7.165,7.031C-5.729,6.326 -4.3,5.724 -2.893,5.243M-3.06,-0.212C-1.587,-0.059 0.007,0.412 1.537,1.208C2.629,1.777 3.602,2.477 4.397,3.243C2.924,3.194 1.288,3.381 -0.479,3.8C-1.254,2.219 -2.12,0.877 -3.06,-0.212M-1.457,3.475C-3.561,2.401 -5.734,1.552 -7.937,0.939C-7.055,0.141 -5.69,-0.265 -4.11,-0.267C-3.149,0.72 -2.256,1.977 -1.457,3.475M-8.815,4.234C-9.079,3.244 -8.965,2.327 -8.488,1.583C-8.478,1.568 -8.466,1.554 -8.457,1.539C-6.173,2.15 -3.921,3.016 -1.743,4.131C-2.196,4.261 -2.656,4.406 -3.125,4.566C-4.612,5.074 -6.124,5.716 -7.642,6.469C-8.21,5.741 -8.617,4.982 -8.815,4.234M-9.507,4.418C-9.292,5.227 -8.878,6.034 -8.3,6.802C-11.248,8.33 -14.209,10.29 -17.053,12.599C-20.282,9.602 -23.275,6.1 -26.232,2.175C-26.215,2.169 -26.2,2.162 -26.184,2.156C-26.18,2.154 -26.177,2.153 -26.174,2.152C-24.854,1.658 -23.463,1.264 -22.009,0.981C-17.846,0.17 -13.471,0.312 -9.184,1.353C-9.693,2.24 -9.806,3.295 -9.507,4.418M-35.128,39.595C-35.157,39.889 -35.174,40.176 -35.187,40.461C-35.452,40.173 -35.711,39.885 -35.959,39.595L-36.906,39.595C-36.377,40.245 -35.802,40.886 -35.193,41.517C-35.163,42.41 -35.042,43.245 -34.83,44.017C-38.581,39.11 -40.808,32.993 -40.808,26.359C-40.808,20.401 -39.011,14.86 -35.928,10.238C-36.284,11.634 -36.437,13.129 -36.383,14.7L-35.672,14.7C-35.754,12.383 -35.377,10.208 -34.503,8.278C-33.335,6.806 -32.028,5.448 -30.601,4.224C-29.859,3.807 -29.095,3.419 -28.314,3.057C-26.575,6.108 -24.764,9.012 -23.098,11.158C-23.422,11.179 -26.145,11.34 -28.718,11.041L-28.414,11.127C-28.51,11.118 -28.605,11.11 -28.704,11.1C-28.11,12.334 -27.461,13.532 -26.772,14.7L-14.646,14.7C-15.28,14.182 -15.902,13.643 -16.518,13.087C-13.692,10.802 -10.755,8.867 -7.834,7.367C-6.903,8.423 -5.662,9.385 -4.202,10.146C-2.332,11.119 -0.361,11.624 1.414,11.677C1.627,12.66 1.812,13.668 1.964,14.7L2.688,14.7C2.538,13.667 2.355,12.658 2.145,11.673C3.957,11.596 5.501,11.016 6.428,9.954C7.955,11.433 9.306,13.026 10.463,14.7L11.326,14.7C10.064,12.811 8.565,11.018 6.85,9.367C7.359,8.48 7.472,7.424 7.173,6.301C6.982,5.583 6.631,4.867 6.151,4.177C7.574,4.454 8.772,5.012 9.698,5.843C14.934,11.123 18.166,18.366 18.166,26.359C18.166,30.078 17.465,33.634 16.189,36.906C13.696,42.094 7.661,44.913 0.244,45.119C3.376,44.327 5.871,43.241 8.829,41.368C7.723,40.861 6.613,40.305 5.502,39.712C5.16,39.729 4.813,39.741 4.455,39.741C-1.724,39.741 -5.572,37.019 -6.823,31.64C-8.764,30.152 -10.66,28.602 -12.493,27.022L-12.493,31.525C-9.897,33.89 -7.304,36.061 -4.883,38.063C-6.746,39.304 -12.776,41.135 -13.958,41.341C-12.942,42.155 -11.914,42.924 -10.876,43.661C-13.344,42.972 -15.846,42.04 -18.323,40.855C-18.562,40.741 -18.798,40.625 -19.034,40.507L-19.133,40.457C-19.573,40.236 -20.008,40.008 -20.437,39.776C-23.517,38.093 -26.183,36.107 -28.317,33.939L-28.317,34.937C-27.616,35.617 -26.874,36.274 -26.087,36.903C-23.747,38.773 -21.044,40.405 -18.084,41.754C-15.146,43.115 -12.145,44.148 -9.173,44.836C-7.517,45.939 -5.838,46.957 -4.143,47.903C-4.163,47.938 -4.183,47.973 -4.203,48.007C-5.514,50.229 -6.938,51.985 -8.419,53.236C-13.108,52.828 -18.216,51.458 -23.177,49.086C-27.638,46.953 -31.517,44.207 -34.488,41.192C-34.493,40.679 -34.468,40.147 -34.411,39.595L-35.128,39.595ZM-14.358,55.461C-21.765,54.709 -28.359,51.237 -33.111,46.068C-33.836,45.027 -34.276,43.754 -34.428,42.283C-31.475,45.147 -27.731,47.742 -23.471,49.779C-18.824,52.001 -13.95,53.409 -9.299,53.913C-10.953,55.069 -12.663,55.604 -14.358,55.461M20.762,58.231C16.769,56.262 12.276,54.016 8.133,51.546C8.839,50.999 9.522,50.423 10.179,49.82C16.606,44.02 20.642,35.658 20.642,26.359C20.642,19.747 18.601,13.608 15.111,8.526C9.376,0.015 -0.352,-5.595 -11.365,-5.595C-17.599,-5.595 -23.418,-3.797 -28.337,-0.694C-30.928,-4.307 -33.529,-8.225 -36.28,-12.392C-35.414,-10.635 -32.848,-5.22 -29.84,0.312C-36.677,5.184 -41.518,12.683 -42.88,21.322C-43.144,22.963 -43.283,24.645 -43.283,26.359C-43.283,31.287 -42.149,35.953 -40.127,40.114C-34.971,50.814 -24.017,58.215 -11.365,58.215C-4.849,58.215 1.216,56.25 6.271,52.884C11.127,54.892 16.006,56.57 20.762,58.231" style="fill:rgb(17,162,221);fill-rule:nonzero;"/>
            </g>
        </g>
    </g>
</svg>
