<?xml version="1.0" encoding="UTF-8" standalone="no"?>
<svg
   xmlns:dc="http://purl.org/dc/elements/1.1/"
   xmlns:cc="http://creativecommons.org/ns#"
   xmlns:rdf="http://www.w3.org/1999/02/22-rdf-syntax-ns#"
   xmlns:svg="http://www.w3.org/2000/svg"
   xmlns="http://www.w3.org/2000/svg"
   id="svg8"
   version="1.1"
   viewBox="0 0 168.22 79.042"
   height="79.042mm"
   width="168.22mm">
  <defs
     id="defs2">
        
        
        
        
        
        
        
        
        
        
    </defs>
  <metadata
     id="metadata5">
    <rdf:RDF>
      <cc:Work
         rdf:about="">
        <dc:format>image/svg+xml</dc:format>
        <dc:type
           rdf:resource="http://purl.org/dc/dcmitype/StillImage" />
        <dc:title></dc:title>
      </cc:Work>
    </rdf:RDF>
  </metadata>
  <g
     transform="matrix(0.26458367,0,0,0.26458333,-2.5715416e-4,-2.0610192)"
     id="g1030"
     style="clip-rule:evenodd;fill-rule:evenodd;stroke-miterlimit:10">
    <g
       transform="translate(-327.35546)"
       id="g1080">
      <g
         transform="matrix(4.16667,0,0,4.16667,-381.566,-251.356)"
         id="g933">
            <g
   transform="translate(217.108,84.7908)"
   id="g931">
                <path
   d="M 0,30.469 0.172,8.908 H 0.043 L -7.875,30.469 H -13.04 L -20.744,8.908 h -0.129 l 0.172,21.561 h -6.928 V 0 h 10.458 l 6.928,19.538 h 0.172 L -3.443,0 h 10.63 v 30.469 z"
   style="fill:#231f20;fill-rule:nonzero"
   id="path929" />

            </g>

        </g>
      <g
         transform="matrix(4.16667,0,0,4.16667,-381.566,-251.356)"
         id="g939">
            <g
   transform="translate(240.132,100.929)"
   id="g937">
                <path
   d="m 0,17.559 c -1.721,4.476 -4.045,7.101 -9.425,7.101 -1.334,0 -2.84,-0.216 -3.873,-0.473 l 0.775,-5.94 c 0.688,0.216 1.592,0.388 2.28,0.388 2.195,0 2.927,-1.033 3.616,-2.884 l 0.688,-1.764 -8.951,-21.088 h 7.832 L -2.281,6.67 h 0.129 l 4.26,-13.771 h 7.489 z"
   style="fill:#231f20;fill-rule:nonzero"
   id="path935" />

            </g>

        </g>
      <g
         transform="matrix(4.16667,0,0,4.16667,-381.566,-251.356)"
         id="g945">
            <g
   transform="translate(0,-395.225)"
   id="g943">
                <rect
   x="250.375"
   y="480.01599"
   width="10.329"
   height="30.469"
   style="fill:#11a2dd"
   id="rect941" />

            </g>

        </g>
      <g
         transform="matrix(4.16667,0,0,4.16667,-381.566,-251.356)"
         id="g951">
            <g
   transform="translate(282.651,84.7908)"
   id="g949">
                <path
   d="M 0,30.469 H -10.243 V 8.65 h -7.488 V 0 H 7.488 V 8.65 H 0 Z"
   style="fill:#11a2dd;fill-rule:nonzero"
   id="path947" />

            </g>

        </g>
      <g
         transform="matrix(4.16667,0,0,4.16667,-381.566,-251.356)"
         id="g957">
            <g
   transform="translate(293.926,97.6149)"
   id="g955">
                <path
   d="M 0,5.681 V -12.824 H 10.243 V 4.562 c 0,2.884 1.463,4.648 4.045,4.648 2.583,0 4.046,-1.764 4.046,-4.648 V -12.824 H 28.533 V 5.681 c 0,7.23 -4.906,12.824 -14.417,12.824 C 4.605,18.505 0,12.911 0,5.681"
   style="fill:#11a2dd;fill-rule:nonzero"
   id="path953" />

            </g>

        </g>
      <g
         transform="matrix(4.16667,0,0,4.16667,-381.566,-251.356)"
         id="g987">
            <g
   transform="matrix(0,1,1,0,207.808,98.0438)"
   id="g985">
                <path
   d="M -35.849,-35.849 H 35.849"
   style="fill:#939598;fill-rule:nonzero;stroke:#00a4e6;stroke-width:0.37px"
   id="path983" />

            </g>

        </g>
    </g>
  </g>
</svg>
